<svg xmlns="http://www.w3.org/2000/svg" width="22" height="22" viewBox="0 0 22 22">
    <g fill="#666" fill-rule="nonzero" opacity=".9">
        <path d="M3 20.057s-.019.483.445.483l5.351-.006.008-4.465s-.075-.736.626-.736h2.22c.83 0 .78.736.78.736l-.01 4.45h5.238c.589 0 .562-.601.562-.601v-8.232L10.838 5 3 11.686v8.37z"/>
        <path d="M0 11.108s.665 1.249 2.117 0l8.672-7.47 8.132 7.424c1.68 1.233 2.309 0 2.309 0l-10.44-9.63L0 11.108zM18.724 3.62h-2.092l.009 2.582 2.083 1.8z"/>
    </g>
</svg>
