<svg xmlns="http://www.w3.org/2000/svg" width="14" height="18" viewBox="0 0 14 18">
    <g fill="none" fill-rule="nonzero">
        <path fill="#FFF" d="M6.5 9C8.433 9 10 6.985 10 4.5S9.486 0 6.5 0C3.515 0 3 2.015 3 4.5S4.567 9 6.5 9z"/>
        <path fill="#000" d="M1.006 15.45c-.005-.876-.01-.247 0 0zM13 15.45c.017-.136.006-.94 0 0z"/>
        <path fill="#FFF" d="M12.993 15.304c-.064-4.302-.59-5.528-4.608-6.304 0 0-.566.771-1.885.771S4.616 9 4.616 9C.64 9.768.083 10.975.01 15.164c-.006.342-.009.36-.01.32v.452S.958 18 6.5 18s6.5-2.064 6.5-2.064v-.334a2.961 2.961 0 0 1-.007-.298z"/>
    </g>
</svg>
