<svg xmlns="http://www.w3.org/2000/svg" width="22" height="22" viewBox="0 0 22 22">
    <path fill="#666" fill-rule="nonzero" d="M20.9 15.661c-.165-.558-3.536-1.594-9.447-1.594-5.912 0-9.283 1.036-9.449 1.594v1.83c0 .035.013.065.02.098-.004.034-.02.064-.02.099 0 1.841 5.94 2.333 9.449 2.333 3.509 0 9.447-.492 9.447-2.333 0-.035-.016-.065-.02-.099.008-.033.02-.065.02-.098v-1.83zm-9.448 3.463c-5.326 0-8.397-.94-8.549-1.425.149-.505 3.216-1.444 8.55-1.444 5.333 0 8.399.94 8.547 1.426-.15.503-3.221 1.443-8.548 1.443zm0-5.957c2.786 0 7.485.32 9.448 1.401V2.602a.451.451 0 0 0-.768-.32l-3.27 3.253a.45.45 0 0 0-.015.623c.15.165.33.433.33.778 0 .783-.926 1.444-2.025 1.444-1.115 0-2.024-.649-2.024-1.444 0-.564.472-1.08 1.202-1.317a.45.45 0 0 0 .18-.746L11.768 2.13a.45.45 0 0 0-.636 0L8.39 4.873a.446.446 0 0 0 .179.746c.73.237 1.203.753 1.203 1.317 0 .783-.927 1.444-2.025 1.444-1.114 0-2.024-.648-2.024-1.444 0-.344.178-.612.328-.776a.447.447 0 0 0-.015-.621L2.769 2.282a.45.45 0 0 0-.769.32V14.57c1.968-1.082 6.667-1.403 9.452-1.403zm-7.558-4.08a.36.36 0 0 1 .64-.226c.73.896 1.904 1.408 3.216 1.408.2 0 .36.163.36.36a.362.362 0 0 1-.36.359c-1.195 0-2.297-.373-3.135-1.044v1.902c0 .2-.162.36-.36.36a.362.362 0 0 1-.358-.36v-2.76h-.003v.001z"/>
</svg>
