<svg xmlns="http://www.w3.org/2000/svg" width="38" height="38" viewBox="0 0 38 38">
    <g fill="#ED422E" fill-rule="nonzero">
        <path d="M3.118 3.117h4.421V1H1v6.456h2.118zM30.46 1v2.117h4.422v4.34H37V1zM3.118 30.544H1V37h6.54v-2.117H3.117zM34.882 34.883h-4.421V37H37v-6.456h-2.118zM19 9c-6.496 0-12.387 3.507-16.734 9.204a1.314 1.314 0 0 0 0 1.585C6.613 25.493 12.504 29 19 29c6.496 0 12.387-3.507 16.734-9.204a1.314 1.314 0 0 0 0-1.585C31.387 12.507 25.496 9 19 9zm.466 17.042c-4.312.268-7.873-3.24-7.602-7.502.223-3.514 3.109-6.362 6.67-6.582 4.312-.268 7.873 3.24 7.602 7.502-.23 3.507-3.116 6.355-6.67 6.582zm-.216-3.253c-2.323.144-4.242-1.744-4.09-4.036.119-1.894 1.677-3.425 3.597-3.548 2.323-.145 4.242 1.743 4.09 4.035-.126 1.901-1.684 3.432-3.597 3.549z"/>
    </g>
</svg>
