<svg xmlns="http://www.w3.org/2000/svg" width="38" height="38" viewBox="0 0 38 38">
    <g fill="#ED422E" fill-rule="nonzero">
        <path d="M20.155 25.357L31 17.523V0H7v17.523l10.837 7.834c.689.51 1.629.51 2.318 0zM10.873 2.545h5.345a.727.727 0 1 1 0 1.454h-5.345a.727.727 0 1 1 0-1.454zm0 3.635h16.254a.727.727 0 1 1 0 1.454H10.873a.727.727 0 1 1 0-1.454zm0 3.636h16.254a.727.727 0 1 1 0 1.454H10.873a.727.727 0 1 1 0-1.454zm0 3.635h16.254a.727.727 0 1 1 0 1.454H10.873a.727.727 0 1 1 0-1.454zm-.727 4.363a.729.729 0 0 1 .727-.727h16.254a.727.727 0 1 1 0 1.454H10.873a.729.729 0 0 1-.727-.727zM32.2 12.065v4.424l4-2.721zM5.8 12.065l-4 1.703 4 2.721z"/>
        <path d="M21.205 26.597a3.352 3.352 0 0 1-4.019 0l-2.235-1.662L2.2 36.74c.306.177.653.266 1.004.26h31.991c.352.005.698-.085 1.005-.26L23.449 24.944l-2.244 1.653zM1 14.88v19.925c.005.2.038.397.099.586L13.4 24.033 1 14.88zM36.902 35.391c.06-.19.093-.387.098-.586V14.88l-12.4 9.144 12.302 11.367z"/>
    </g>
</svg>
