<svg xmlns="http://www.w3.org/2000/svg" width="22" height="22" viewBox="0 0 22 22">
    <g fill="#666" fill-rule="nonzero">
        <path d="M14.641 2.884c.292-.622.584-1.24.893-1.902-3.397-1.418-6.711-1.349-9.882.523C2.59 3.317.927 6.062.5 9.603c.727.064 1.415.12 2.104.181.374-5.348 6.328-9.45 12.037-6.9zM21.133 9c-.68.117-1.356.239-2.063.36.364 2.462-.138 4.676-1.642 6.616-1.49 1.932-3.484 2.996-5.928 3.265.06.694.117 1.372.178 2.049 5.113-.183 10.59-5.327 9.455-12.29zM2.518 11.335c-.655.057-1.337.113-2.018.174.157 4.307 3.927 9.149 9.605 9.61l.18-2.042c-4.439-.74-7.016-3.305-7.767-7.742zM17.755 5.389a8.788 8.788 0 0 1 1.265 2.247c.663-.237 1.317-.47 2.003-.717-.791-2.07-2.082-3.717-3.91-5.01-.408.57-.808 1.133-1.221 1.716a9.175 9.175 0 0 1 1.863 1.764z"/>
        <path d="M13.604 7.756a.34.34 0 0 0-.337.345v6.827c0 .192.15.345.337.345h2.309a.34.34 0 0 0 .337-.345V8.1a.34.34 0 0 0-.337-.345h-2.309zm1.972 6.827H13.94V8.45h1.635v6.133zM6.087 9.545a.34.34 0 0 0-.337.347v5.034c0 .193.15.347.337.347h2.309a.34.34 0 0 0 .337-.347V9.892a.34.34 0 0 0-.337-.347H6.087zm.337 5.035v-.54l.525.54h-.525zm1.059 0l-1.059-1.088v-.548l1.596 1.64h-.537v-.004zm.576-.509l-1.635-1.68v-.548l1.635 1.68v.548zm0-1.096l-1.635-1.68v-.548l1.635 1.68v.548zm0-1.097l-1.592-1.635H7L8.06 11.33v.548zm0-1.1l-.525-.54h.525v.54zM9.905 5.011a.339.339 0 0 0-.337.344v9.574c0 .191.15.344.337.344h2.309a.339.339 0 0 0 .337-.344V5.355a.339.339 0 0 0-.337-.344H9.905z"/>
    </g>
</svg>
