<svg xmlns="http://www.w3.org/2000/svg" width="38" height="38" viewBox="0 0 38 38">
    <g fill="#ED422E" fill-rule="nonzero">
        <path d="M18 18V3H7.668A4.678 4.678 0 0 0 3 7.678V18h15zm-3.669-5.742h-1.947v1.982a.935.935 0 1 1-1.868 0v-1.982H8.57a.935.935 0 0 1 0-1.87h1.947V8.404a.935.935 0 1 1 1.868 0v1.982h1.947a.935.935 0 0 1 0 1.871zM20 18h15V7.678A4.678 4.678 0 0 0 30.332 3H20v15zm9.483-5.742H23.72a.935.935 0 0 1 0-1.871h5.762a.935.935 0 0 1 0 1.871zM20 20v15h10.332A4.668 4.668 0 0 0 35 30.342V20H20zm6.598 3.229c.515 0 .933.421.933.941s-.418.942-.933.942a.938.938 0 0 1-.934-.942c0-.52.418-.941.934-.941zm-2.877 2.838h5.762a.933.933 0 1 1 0 1.864H23.72a.933.933 0 1 1 0-1.864zm3.81 3.752c0 .52-.418.941-.933.941a.937.937 0 0 1-.934-.94c0-.52.418-.942.934-.942.515 0 .933.421.933.941zM18 20H3v10.342A4.668 4.668 0 0 0 7.668 35H18V20zm-9.251 5.6a.93.93 0 0 1 .007-1.317.935.935 0 0 1 1.32.007l1.373 1.385 1.374-1.386a.935.935 0 0 1 1.32-.007.93.93 0 0 1 .008 1.318L12.763 27l1.387 1.398a.93.93 0 0 1-.663 1.587.932.932 0 0 1-.664-.276l-1.374-1.385-1.373 1.385a.933.933 0 0 1-1.327-1.311l1.387-1.399-1.387-1.398z"/>
    </g>
</svg>
