<svg xmlns="http://www.w3.org/2000/svg" width="20" height="20" viewBox="0 0 20 20">
    <g fill="none" fill-rule="evenodd" opacity=".6">
        <g fill="#000" fill-rule="nonzero">
            <g>
                <path d="M2 3.075c-.663 0-1.2-.537-1.2-1.2 0-.663.537-1.2 1.2-1.2h16c.663 0 1.2.537 1.2 1.2 0 .663-.537 1.2-1.2 1.2H2zM2 8.998c-.663 0-1.2-.537-1.2-1.2 0-.663.537-1.2 1.2-1.2h12c.663 0 1.2.537 1.2 1.2 0 .663-.537 1.2-1.2 1.2H2zM2 14.921c-.663 0-1.2-.537-1.2-1.2 0-.663.537-1.2 1.2-1.2h16c.663 0 1.2.537 1.2 1.2 0 .663-.537 1.2-1.2 1.2H2z" transform="translate(0 2)"/>
            </g>
        </g>
    </g>
</svg>
