<svg xmlns="http://www.w3.org/2000/svg" width="29" height="29" viewBox="0 0 29 29">
    <g fill="none" fill-rule="evenodd" stroke="#FFF">
        <path fill-rule="nonzero" d="M20.97 11.86a.323.323 0 0 0-.293-.193h-3.834l3.783-6.155a.342.342 0 0 0 .01-.34.322.322 0 0 0-.283-.172h-5.176a.323.323 0 0 0-.29.184l-4.853 10a.342.342 0 0 0 .014.324c.06.099.163.159.276.159h3.326l-3.625 8.87a.34.34 0 0 0 .13.414.315.315 0 0 0 .416-.07l10.353-12.666a.342.342 0 0 0 .046-.356z"/>
        <circle cx="14.5" cy="14.5" r="14.5"/>
        <path stroke-linecap="square" d="M4.5 4.5l20 20"/>
    </g>
</svg>
