<svg xmlns="http://www.w3.org/2000/svg" width="38" height="38" viewBox="0 0 38 38">
    <g fill="#ED422E" fill-rule="nonzero">
        <path d="M5.5 4h-3C1.6 4 1 4.6 1 5.5v3c0 .9.6 1.5 1.5 1.5h3C6.4 10 7 9.4 7 8.5v-3C7 4.6 6.4 4 5.5 4zM5.5 16h-3c-.9 0-1.5.6-1.5 1.5v3c0 .9.6 1.5 1.5 1.5h3c.9 0 1.5-.6 1.5-1.5v-3c0-.9-.6-1.5-1.5-1.5zM5.5 28h-3c-.9 0-1.5.6-1.5 1.5v3c0 .9.6 1.5 1.5 1.5h3c.9 0 1.5-.6 1.5-1.5v-3c0-.9-.6-1.5-1.5-1.5zM35.5 4h-21c-.9 0-1.5.6-1.5 1.5v3c0 .9.6 1.5 1.5 1.5h21c.9 0 1.5-.6 1.5-1.5v-3c0-.9-.6-1.5-1.5-1.5zM35.5 16h-21c-.9 0-1.5.6-1.5 1.5v3c0 .9.6 1.5 1.5 1.5h21c.9 0 1.5-.6 1.5-1.5v-3c0-.9-.6-1.5-1.5-1.5zM35.5 28h-21c-.9 0-1.5.6-1.5 1.5v3c0 .9.6 1.5 1.5 1.5h21c.9 0 1.5-.6 1.5-1.5v-3c0-.9-.6-1.5-1.5-1.5z"/>
    </g>
</svg>
