<svg xmlns="http://www.w3.org/2000/svg" xmlns:xlink="http://www.w3.org/1999/xlink" width="38" height="38" viewBox="0 0 38 38">
    <defs>
        <linearGradient id="a" x1="50%" x2="50%" y1="73.708%" y2="0%">
            <stop offset="0%" stop-color="#ED412D"/>
            <stop offset="100%" stop-color="#FF7C6C"/>
        </linearGradient>
        <path id="b" d="M35.434 13.933l-9.914-.96c-.625-.058-1.165-.465-1.42-1.075L20.549 3.09c-.569-1.453-2.586-1.453-3.154 0l-3.522 8.808a1.683 1.683 0 0 1-1.42 1.075l-9.915.96c-1.477.145-2.074 2.034-.966 3.052L9.043 23.7c.483.436.682 1.075.54 1.715L7.34 34.833c-.34 1.482 1.222 2.703 2.528 1.918l8.267-4.97c.54-.32 1.193-.32 1.733 0l8.266 4.97c1.307.785 2.87-.406 2.528-1.918l-2.215-9.418a1.763 1.763 0 0 1 .54-1.715l7.47-6.715c1.08-1.018.455-2.907-1.022-3.052z"/>
    </defs>
    <g fill="none" fill-rule="evenodd">
        <use fill="url(#a)" xlink:href="#b"/>
        <use fill="#ED422E" xlink:href="#b"/>
    </g>
</svg>
